<svg width="240" height="120" viewBox="0 0 240 120" xmlns="http://www.w3.org/2000/svg">
  <!-- Heart Shape with Hand -->
  <g transform="translate(70, 0) scale(0.9)">
    <!-- White Heart -->
    <path d="M100 20 C60 20, 40 50, 40 80 C40 110, 70 130, 100 150 C130 130, 160 110, 160 80 C160 50, 140 20, 100 20 Z" fill="#ffffff"/>
    
    <!-- Hand Silhouette - simplified overlay -->
    <path d="M70 65 C80 60, 80 88, 80 100 C90 95, 90 60, 95 65 C100 70, 100 90, 105 95 C110 88, 110 65, 115 70 C120 75, 120 90, 125 92 C130 88, 130 65, 135 75 C140 80, 130 100, 115 110 C100 120, 80 105, 75 90 C70 80, 70 70, 70 65 Z" fill="#ffffff" stroke="#ffffff" stroke-width="0.5" stroke-opacity="0.2"/>
  </g>
  
  <!-- "Caring for Pops" Text -->
  <text x="120" y="100" font-family="Arial, sans-serif" font-size="24" font-weight="normal" fill="#ffffff" text-anchor="middle" style="font-style: italic;">
    Caring for Pops
  </text>
</svg>