<svg width="80" height="80" viewBox="0 0 80 80" fill="none" xmlns="http://www.w3.org/2000/svg">
  <rect width="80" height="80" rx="8" fill="#f0f9fa"/>
  <path d="M40 12C24.536 12 12 24.536 12 40C12 55.464 24.536 68 40 68C55.464 68 68 55.464 68 40C68 24.536 55.464 12 40 12Z" fill="#25b5b8" fill-opacity="0.2"/>
  <path d="M28 36C28 31.582 31.582 28 36 28H44C48.418 28 52 31.582 52 36V44C52 48.418 48.418 52 44 52H36C31.582 52 28 48.418 28 44V36Z" fill="#6b4aa5" fill-opacity="0.2"/>
  <path d="M40 20C29.335 20 20.667 28.667 20.667 39.333C20.667 50 29.335 58.667 40 58.667C50.665 58.667 59.333 50 59.333 39.333C59.333 28.667 50.665 20 40 20Z" stroke="#6b4aa5" stroke-width="2" stroke-linecap="round"/>
  <path d="M33.333 40C33.333 36.318 36.318 33.333 40 33.333C43.682 33.333 46.667 36.318 46.667 40C46.667 43.682 43.682 46.667 40 46.667C36.318 46.667 33.333 43.682 33.333 40Z" stroke="#25b5b8" stroke-width="2"/>
  <path d="M40 33.333V28" stroke="#25b5b8" stroke-width="2" stroke-linecap="round"/>
  <path d="M46.667 40H52" stroke="#25b5b8" stroke-width="2" stroke-linecap="round"/>
  <path d="M40 46.667V52" stroke="#25b5b8" stroke-width="2" stroke-linecap="round"/>
  <path d="M33.333 40H28" stroke="#25b5b8" stroke-width="2" stroke-linecap="round"/>
</svg>